HIERARCHY
ROOT joint_Root
{
	OFFSET 0.0 0.0 0.0
	CHANNELS 6 Xposition Yposition Zposition Zrotation Xrotation Yrotation 
	JOINT Hips
	{
		OFFSET 4.5925 91.4895 -427.239
		CHANNELS 6 Xposition Yposition Zposition Zrotation Xrotation Yrotation 
		JOINT Spine
		{
			OFFSET 15.7357 0.0 0.0
			CHANNELS 6 Xposition Yposition Zposition Zrotation Xrotation Yrotation 
			JOINT Chest
			{
				OFFSET 8.98455 -0.406207 0.0
				CHANNELS 6 Xposition Yposition Zposition Zrotation Xrotation Yrotation 
				JOINT Neck
				{
					OFFSET 16.3773 0.0 0.0
					CHANNELS 6 Xposition Yposition Zposition Zrotation Xrotation Yrotation 
					JOINT Head
					{
						OFFSET 6.45672 0.0 0.0
						CHANNELS 6 Xposition Yposition Zposition Zrotation Xrotation Yrotation 
						End Site
						{
							OFFSET 0.0 0.0 0.0
						}
					}
				}
				JOINT Shoulder_L
				{
					OFFSET 12.9942 -0.242716 4.98039
					CHANNELS 6 Xposition Yposition Zposition Zrotation Xrotation Yrotation 
					JOINT UpperArm_L
					{
						OFFSET 5.34809 0.0 0.0
						CHANNELS 6 Xposition Yposition Zposition Zrotation Xrotation Yrotation 
						JOINT LowerArm_L
						{
							OFFSET 24.3286 1.87007e-05 0.0
							CHANNELS 6 Xposition Yposition Zposition Zrotation Xrotation Yrotation 
							JOINT Hand_L
							{
								OFFSET 22.2916 0.0 0.0
								CHANNELS 6 Xposition Yposition Zposition Zrotation Xrotation Yrotation 
								End Site
								{
									OFFSET 0.0 0.0 0.0
								}
							}
						}
					}
				}
				JOINT Shoulder_R
				{
					OFFSET 12.9945 -0.242716 -4.98039
					CHANNELS 6 Xposition Yposition Zposition Zrotation Xrotation Yrotation 
					JOINT UpperArm_R
					{
						OFFSET -5.34813 0.0 0.0
						CHANNELS 6 Xposition Yposition Zposition Zrotation Xrotation Yrotation 
						JOINT LowerArm_R
						{
							OFFSET -24.3289 0.000322201 0.0
							CHANNELS 6 Xposition Yposition Zposition Zrotation Xrotation Yrotation 
							JOINT Hand_R
							{
								OFFSET -22.2915 -0.000108084 0.0
								CHANNELS 6 Xposition Yposition Zposition Zrotation Xrotation Yrotation 
								End Site
								{
									OFFSET 0.0 0.0 0.0
								}
							}
						}
					}
				}
			}
		}
		JOINT UpperLeg_L
		{
			OFFSET -2.19248 -6.46944 0.0
			CHANNELS 6 Xposition Yposition Zposition Zrotation Xrotation Yrotation 
			JOINT LowerLeg_L
			{
				OFFSET 39.0811 0.0 -1.23785e-05
				CHANNELS 6 Xposition Yposition Zposition Zrotation Xrotation Yrotation 
				JOINT Foot_L
				{
					OFFSET 40.9854 0.0 -1.26872e-05
					CHANNELS 6 Xposition Yposition Zposition Zrotation Xrotation Yrotation 
					JOINT Toes_L
					{
						OFFSET 11.7543 0.0 0.0
						CHANNELS 6 Xposition Yposition Zposition Zrotation Xrotation Yrotation 
						End Site
						{
							OFFSET 0.0 0.0 0.0
						}
					}
				}
			}
		}
		JOINT UpperLeg_R
		{
			OFFSET -2.19251 6.46944 0.0
			CHANNELS 6 Xposition Yposition Zposition Zrotation Xrotation Yrotation 
			JOINT LowerLeg_R
			{
				OFFSET -39.0811 -0.00228153 -0.0401928
				CHANNELS 6 Xposition Yposition Zposition Zrotation Xrotation Yrotation 
				JOINT Foot_R
				{
					OFFSET -40.9854 0.0 0.0
					CHANNELS 6 Xposition Yposition Zposition Zrotation Xrotation Yrotation 
					JOINT Toes_R
					{
						OFFSET -11.7543 0.0 0.0
						CHANNELS 6 Xposition Yposition Zposition Zrotation Xrotation Yrotation 
						End Site
						{
							OFFSET 0.0 0.0 0.0
						}
					}
				}
			}
		}
	}
}
MOTION
Frames:	6
Frame Time:	0.0333333
0.000000 0.000000 0.000000 0.000000 0.000000 -0.000000 0.745447 82.847900 -0.350159 89.033500 -4.014420 8.961650 15.735700 0.000005 -0.000001 93.062600 81.620500 -93.201700 8.984550 -0.406207 -0.000000 8.970840 0.889246 -0.347758 16.377300 -0.000001 -0.000001 -2.349730 -4.277660 1.105830 6.456720 -0.000001 -0.000000 -5.355900 -6.512740 4.849180 12.994200 -0.242716 4.980390 -91.773100 5.334850 -71.584700 5.348090 -0.000007 -0.000001 -61.536200 24.255100 -15.866200 24.328600 0.000019 0.000005 6.421060 15.974600 -22.240500 22.291600 -0.000001 0.000005 10.857700 5.293250 0.251864 12.994500 -0.242716 -4.980390 88.500600 8.647930 -80.125100 -5.348130 -0.000001 -0.000004 -60.338600 34.252200 -10.465300 -24.328900 0.000322 -0.000009 -0.914072 -1.707340 -28.131100 -22.291500 -0.000108 -0.000004 19.495200 5.456010 -4.854640 -2.192480 -6.469440 -0.000000 -175.420000 -12.861800 -15.573500 39.081100 -0.000007 -0.000012 -0.435648 0.247660 60.383300 40.985400 -0.000006 -0.000013 1.784050 3.115440 -85.729900 11.754300 -0.000000 0.000003 -0.000318 -0.002729 -16.679000 -2.192510 6.469440 -0.000001 176.108000 12.827400 163.660000 -39.081100 -0.002282 -0.040193 0.082037 -0.044241 60.701500 -40.985400 0.000008 0.000006 6.286300 5.276900 -84.611400 -11.754300 -0.000006 -0.000006 -0.529926 -0.650788 -17.336000
0.000000 0.000000 0.000000 0.000000 0.000000 -0.000000 0.978496 84.189300 0.380492 89.286500 -4.845700 9.036800 15.735700 0.000005 -0.000001 93.015600 82.168800 -92.564100 8.984550 -0.406207 -0.000000 7.872150 0.820936 0.845699 16.377300 -0.000001 -0.000001 -1.115990 -3.974740 1.028830 6.456720 -0.000001 -0.000000 -4.398430 -5.707160 3.054910 12.994200 -0.242716 4.980390 -91.487300 4.315890 -70.962800 5.348090 -0.000007 -0.000001 -57.697100 14.998000 -17.133300 24.328600 0.000019 0.000005 6.864150 17.081500 -22.285100 22.291600 -0.000001 0.000005 7.751060 5.300200 0.065146 12.994500 -0.242716 -4.980390 88.396300 8.686540 -79.498300 -5.348130 -0.000001 -0.000004 -60.913500 32.157500 -9.224120 -24.328900 0.000322 -0.000009 -0.885276 -1.875220 -25.258300 -22.291500 -0.000108 -0.000004 19.525000 5.441590 -4.341010 -2.192480 -6.469440 -0.000000 -175.833000 -13.003300 -12.738100 39.081100 -0.000007 -0.000012 -0.396677 0.266437 56.112700 40.985400 -0.000006 -0.000013 1.444640 2.476140 -84.225100 11.754300 -0.000000 0.000003 -0.000283 -0.002475 -16.669900 -2.192510 6.469440 -0.000001 175.684000 11.923100 166.127000 -39.081100 -0.002282 -0.040193 0.067545 -0.042260 56.696400 -40.985400 0.000008 0.000006 5.880980 5.655830 -83.008000 -11.754300 -0.000006 -0.000006 -0.495028 -0.608506 -17.388800
0.000000 0.000000 0.000000 0.000000 0.000000 -0.000000 1.107760 86.195300 1.243560 89.378400 -5.483430 9.009880 15.735700 0.000005 -0.000001 94.145100 82.872400 -92.957900 8.984550 -0.406207 -0.000000 6.443170 1.013640 2.314850 16.377300 -0.000001 -0.000001 0.821306 -3.864210 0.650932 6.456720 -0.000001 -0.000000 -3.177140 -5.165810 1.035040 12.994200 -0.242716 4.980390 -90.879700 2.493370 -70.559200 5.348090 -0.000007 -0.000001 -50.752500 4.104040 -21.555300 24.328600 0.000019 0.000005 6.579290 17.267000 -21.234400 22.291600 -0.000001 0.000005 8.436290 5.258070 1.217290 12.994500 -0.242716 -4.980390 88.304100 8.351680 -78.478200 -5.348130 -0.000001 -0.000004 -61.703700 29.457700 -6.740360 -24.328900 0.000322 -0.000009 -1.202310 -2.753110 -23.585700 -22.291500 -0.000108 -0.000004 19.569300 5.453900 -4.780470 -2.192480 -6.469440 -0.000000 -176.061000 -12.844600 -8.710350 39.081100 -0.000007 -0.000012 -0.355970 0.306249 49.294600 40.985400 -0.000006 -0.000013 1.028970 1.910470 -81.468300 11.754300 -0.000000 0.000003 -0.000235 -0.002123 -16.657300 -2.192510 6.469440 -0.000001 175.401000 11.599200 169.826000 -39.081100 -0.002282 -0.040193 0.051222 -0.039928 50.230700 -40.985400 0.000008 0.000006 5.582500 6.381640 -80.074100 -11.754300 -0.000006 -0.000006 -0.425606 -0.525986 -17.684400
0.000000 0.000000 0.000000 0.000000 0.000000 -0.000000 1.166330 88.138900 1.939600 89.031000 -5.580130 8.057040 15.735700 0.000005 -0.000001 95.869400 83.930700 -93.922100 8.984550 -0.406207 -0.000000 4.292610 1.180340 3.845950 16.377300 -0.000001 -0.000001 2.872890 -4.276880 0.824977 6.456720 -0.000001 -0.000000 -1.529860 -5.376830 -0.846321 12.994200 -0.242716 4.980390 -90.241300 0.690053 -70.741900 5.348090 -0.000007 -0.000001 -44.281600 -12.205300 -27.498900 24.328600 0.000019 0.000005 5.270280 13.542500 -21.509700 22.291600 -0.000001 0.000005 9.694440 5.206640 2.542490 12.994500 -0.242716 -4.980390 88.269300 7.641080 -77.196500 -5.348130 -0.000001 -0.000004 -62.194800 27.176700 -3.732150 -24.328900 0.000322 -0.000009 -1.344330 -3.163640 -23.020500 -22.291500 -0.000108 -0.000004 19.356600 5.470880 -5.406490 -2.192480 -6.469440 -0.000000 -176.038000 -12.414600 -5.571040 39.081100 -0.000007 -0.000012 -0.289003 0.320900 42.006900 40.985400 -0.000006 -0.000013 0.725521 1.596770 -78.282100 11.754300 -0.000000 0.000003 -0.000175 -0.001655 -16.640200 -2.192510 6.469440 -0.000001 175.304000 13.393300 172.983000 -39.081100 -0.002282 -0.040193 0.034472 -0.033412 43.041700 -40.985400 0.000008 0.000006 5.493110 8.632380 -76.605300 -11.754300 -0.000006 -0.000006 -0.330005 -0.416163 -18.124400
0.000000 0.000000 0.000000 0.000000 0.000000 -0.000000 1.077150 89.560700 2.246790 88.417700 -5.849620 6.326730 15.735700 0.000005 -0.000001 98.632600 85.023100 -96.052700 8.984550 -0.406207 -0.000000 2.050080 1.364480 5.130660 16.377300 -0.000001 -0.000001 4.235800 -4.910200 1.556230 6.456720 -0.000001 -0.000000 -0.197868 -5.817860 -1.963500 12.994200 -0.242716 4.980390 -89.447500 -1.680340 -71.785100 5.348090 -0.000007 -0.000001 -37.209600 -27.877200 -32.662700 24.328600 0.000019 0.000005 3.104570 6.135630 -26.968300 22.291600 -0.000001 0.000005 14.165200 5.227470 2.056020 12.994500 -0.242716 -4.980390 88.260400 7.018720 -76.041600 -5.348130 -0.000001 -0.000004 -61.514400 25.750200 -1.683330 -24.328900 0.000322 -0.000009 -1.323030 -3.140210 -22.844100 -22.291500 -0.000108 -0.000004 19.160800 5.485690 -5.967940 -2.192480 -6.469440 -0.000000 -175.522000 -13.180600 -4.111750 39.081100 -0.000007 -0.000012 -0.218298 0.299105 36.123800 40.985400 -0.000006 -0.000013 0.698728 2.275470 -75.503300 11.754300 -0.000000 0.000003 -0.000112 -0.001130 -16.620800 -2.192510 6.469440 -0.000001 175.627000 16.334000 174.601000 -39.081100 -0.002282 -0.040193 0.021194 -0.023814 36.941500 -40.985400 0.000008 0.000006 5.774440 11.943700 -73.568000 -11.754300 -0.000006 -0.000006 -0.269593 -0.349744 -18.474000
0.000000 0.000000 0.000000 0.000000 0.000000 -0.000000 1.100070 90.418300 2.409370 87.710400 -6.493030 4.834780 15.735700 0.000005 -0.000001 98.890100 85.764600 -95.768700 8.984550 -0.406207 -0.000000 0.580670 1.113130 6.232690 16.377300 -0.000001 -0.000001 4.705490 -4.950170 2.300240 6.456720 -0.000001 -0.000000 0.453735 -5.836760 -1.986750 12.994200 -0.242716 4.980390 -88.513600 -4.692140 -72.401100 5.348090 -0.000007 -0.000001 -27.182900 -41.056600 -33.908400 24.328600 0.000019 0.000005 0.493653 0.672686 -36.467300 22.291600 -0.000001 0.000005 19.614900 5.310040 -0.189649 12.994500 -0.242716 -4.980390 88.174800 7.123630 -75.589000 -5.348130 -0.000001 -0.000004 -58.829600 25.045200 -0.961342 -24.328900 0.000322 -0.000009 -1.374040 -3.230500 -23.040600 -22.291500 -0.000108 -0.000004 19.449800 5.489230 -6.105910 -2.192480 -6.469440 -0.000000 -175.077000 -14.090800 -3.499630 39.081100 -0.000007 -0.000012 -0.127310 0.200897 32.363100 40.985400 -0.000006 -0.000013 1.298100 2.510250 -73.797600 11.754300 -0.000000 0.000003 -0.355134 -0.453205 -16.315400 -2.192510 6.469440 -0.000001 176.018000 19.312400 175.632000 -39.081100 -0.002282 -0.040193 0.011151 -0.012380 32.391500 -40.985400 0.000008 0.000006 6.207940 15.620000 -71.656700 -11.754300 -0.000006 -0.000006 -0.157993 -0.222491 -18.500100
